<svg width="197" height="191" viewBox="0 0 197 191" fill="none" xmlns="http://www.w3.org/2000/svg">
<path d="M1 55.034V33.8489L1.23985 29.0882L1.95941 24.3275L2.91882 19.5667L4.11808 14.806L5.79705 9.33123L8.43542 4.80856L10.5941 2.90428L12.9926 1.95214L15.1513 1.47607L17.5498 1.23804L22.3469 1L28.583 1.23804L31.941 1.71411L34.3395 2.19018L41.5351 4.57053L49.2103 7.42695L53.2878 9.33123L56.8856 11.2355L62.1624 14.0919L66.9594 17.4244L72.7159 22.1851L76.5535 20.5189L79.9114 19.5667L90.4649 18.8526L97.4207 18.6146H105.815H114.69L118.048 19.0907L120.926 19.5667L124.284 20.0428L130.28 16.7103L136.517 13.6159L147.07 10.0453L155.705 6.47481L164.339 4.33249L172.015 2.66625H179.93L186.646 4.33249L189.764 7.42695L192.402 11.2355L193.601 15.5202L195.041 22.8992L195.76 30.7544L196 41.466L195.52 52.4156L195.28 61.699L194.801 67.4118L193.841 73.6008L193.122 76.6952L192.162 79.5516L190.483 83.8363L187.605 90.5013L188.565 95.5L189.284 100.499L190.004 105.736L190.723 111.21L190.963 122.398V128.349L190.004 134.062L188.325 144.535L184.967 153.581L179.93 161.436L174.173 168.339L169.137 172.861L163.14 176.432L157.144 179.764L150.908 182.383L145.871 184.049L140.594 185.001L137.236 185.477L133.638 186.191L127.882 187.144L121.646 188.096L112.531 188.81L103.897 189.524L95.5018 189.762L86.8672 190H77.9926H69.1181L66 189.524L63.1218 189.048L60.7232 188.572L58.0589 187.843L54.9668 186.906L52.0886 185.953L46.8118 183.573L41.0554 181.431L36.0185 179.05L30.9816 177.146L20.1882 170.005L16.1107 165.958L12.9926 161.436L8.91513 154.533L5.31734 144.773L3.63838 140.013L3.15867 137.632L2.91882 135.014L2.67897 116.447V108.83V105.021L2.91882 100.975L3.39852 98.3564L4.35793 95.5L5.07749 93.1196L6.0369 90.2632L6.75646 86.6927L8.19557 83.5982L7.23616 81.4559L6.27675 79.3136L5.07749 74.5529L2.67897 64.5554L1.4797 59.7947L1 55.034Z" stroke="black"/>
</svg>
